<svg xmlns="http://www.w3.org/2000/svg" viewBox="0 0 175.52 181.48"><defs><style>.cls-1{fill:#fff;}</style></defs><g id="Livello_2" data-name="Livello 2"><g id="Livello_1-2" data-name="Livello 1"><path class="cls-1" d="M0,127.72.33,126a13.21,13.21,0,0,1,3.46-6.73L39,81.63c2.25-2.39,4.7-4.58,8.05-5.12,1.54-.25,2-.83,2.29-2.29,1.26-6.45,4.35-9.39,10.85-10.64.38-.07.76-.17,1.13-.25.46-8,5.85-12.33,12.17-13q.57-11.39,12-13.28c.1-.84.17-1.71.33-2.56.69-3.6,3-6.13,5.42-8.71,3.91-4.21,8.92-5.06,14.26-5.39,6.18-.38,12.35-1,18.62-1.49a7.06,7.06,0,0,0-.16-.8A6.83,6.83,0,0,1,125.53,11c2.59-2.78,5.18-5.56,7.81-8.29,3.36-3.49,6.88-3.61,10.4-.34,5.86,5.44,11.69,10.92,17.53,16.38l11.2,10.49c1.67,1.57,3.07,3.26,3.05,5.74a6.87,6.87,0,0,1-2,4.65c-2.67,2.92-5.39,5.79-8.11,8.67a6.45,6.45,0,0,1-7.18,2,6.73,6.73,0,0,0-.77-.07c0,1.87,0,3.7,0,5.52q-.1,9.3-.24,18.59a11.3,11.3,0,0,1-2.5,7,62.71,62.71,0,0,1-4.95,5.36A11.3,11.3,0,0,1,143,89.82c-.65.07-.95.27-1.05,1-1,7.23-4.83,11-12.23,12-.67,7.43-4.63,11.87-12.19,13-.52,7.46-4.37,12-12,13.22-.09.79-.13,1.62-.28,2.43-.57,3.17-2.49,5.58-4.61,7.84Q92.85,147.65,85,155.94q-9.93,10.59-19.85,21.18a12.63,12.63,0,0,1-7.87,4.18,1.78,1.78,0,0,0-.43.18H55c-.09-.06-.18-.17-.28-.18a13,13,0,0,1-7.46-3.73q-21.48-20.1-43-40.15a12.75,12.75,0,0,1-3.87-7c-.13-.66-.24-1.31-.35-2Zm49.24-44c-1.72.07-2.85,1.21-4,2.39L15.61,117.83c-2.29,2.45-4.63,4.87-6.82,7.41-1.8,2.11-1.66,4.07.18,6.12.29.33.62.63.94.93l35.45,33.2c2.39,2.24,4.77,4.49,7.2,6.7s4.6,2.19,6.92-.11l.68-.68,35.31-37.74c3.36-3.59,3.28-5.25-.3-8.6L66.62,98.36,53.14,85.72A5.74,5.74,0,0,0,49.24,83.76ZM149.75,59.28h.32c0-4.76,0-9.52,0-14.28a3.42,3.42,0,0,0-1-2.18c-5.55-5.29-11.17-10.52-16.75-15.78a3.1,3.1,0,0,0-2.6-.91c-8.92.74-17.84,1.48-26.76,2.13a8.17,8.17,0,0,0-5.17,1.92,33.73,33.73,0,0,0-3.9,4.37A3.7,3.7,0,0,0,94,39.24a11.45,11.45,0,0,0,1.46,1.58Q111.74,56.08,128,71.3c3.42,3.2,6.82,6.4,10.26,9.58,2.21,2,4.21,2.05,6.48.06.69-.6,1.31-1.28,2-1.91a9.43,9.43,0,0,0,3-7.52C149.67,67.44,149.75,63.36,149.75,59.28Zm-39.93,57.1c.07-2-1-3.37-2.38-4.64L76.35,82.66c-3.64-3.42-7.27-6.86-11-10.22a5.15,5.15,0,0,0-8.64,2.48c-.54,2.33.58,4.06,2.22,5.6q19.36,18.09,38.7,36.2a47.22,47.22,0,0,0,4.41,3.86,4.48,4.48,0,0,0,5.1.2A5,5,0,0,0,109.82,116.38Zm12.09-13.31A5.71,5.71,0,0,0,120,98.94L88.16,69.26c-3.59-3.36-7.16-6.74-10.8-10a4.68,4.68,0,0,0-6-.47,5.08,5.08,0,0,0-2.23,5.62,7.9,7.9,0,0,0,2.68,3.73l36.41,34.07c1.78,1.67,3.53,3.38,5.41,4.92a4.72,4.72,0,0,0,5.5.51A4.84,4.84,0,0,0,121.91,103.07Zm12.51-13.43a6,6,0,0,0-2.22-3.9L97.21,53c-2.28-2.13-4.55-4.27-6.84-6.38s-4.64-2.41-6.67-1.15c-3.06,1.88-3.24,6-.42,8.62l30.33,28.29,12.08,11.3a4.87,4.87,0,0,0,5.52,1.15A5.54,5.54,0,0,0,134.42,89.64Zm4.39-81.39-7.08,7.58,28.54,26.72L167.36,35Z"/></g></g></svg>