<svg xmlns="http://www.w3.org/2000/svg" viewBox="0 0 146.55 185.63"><defs><style>.cls-1{fill:#fff;}</style></defs><g id="Livello_2" data-name="Livello 2"><g id="Livello_1-2" data-name="Livello 1"><path class="cls-1" d="M73.51,0c3.68,1.56,7.25,3.53,11.07,4.58C89.72,6,95.06,6.73,100.33,7.65a4.29,4.29,0,0,1,3.25,1.86,71.78,71.78,0,0,0,19.12,19.1,3.13,3.13,0,0,1,1.55,2.63,72.07,72.07,0,0,0,7,26.41,3.49,3.49,0,0,1,0,3c-1.8,5-3.44,10-5.11,15a5.7,5.7,0,0,0-.1,1.21h17.33c4.11,3.63,4.21,7.12,0,10.8H132.76V174.8h10.63c2.73,3.66,3.61,7.18,0,10.83H2.15c-3.09-4.41-2.64-7.76,0-10.68H12.81V87.86H2.19C-.58,84.2-.87,80.68,2.19,77H19.72c-.8-3-1.41-5.67-2.29-8.31-1-2.85-2.23-5.59-3.24-8.43a3.34,3.34,0,0,1,0-2.31,74.27,74.27,0,0,0,7.15-26.56,3.52,3.52,0,0,1,1.72-2.93A71.93,71.93,0,0,0,42.18,9.33a3.63,3.63,0,0,1,3.13-1.69A73.16,73.16,0,0,0,72.17.25c.1,0,.17-.17.26-.25ZM31.25,76.77h83.07c1.79-5.71,3.52-11.15,5.17-16.61a3.6,3.6,0,0,0-.12-2.2,85.82,85.82,0,0,1-5.63-21.25,2.92,2.92,0,0,0-1-1.76A89.67,89.67,0,0,1,97,19.22a3,3,0,0,0-1.77-1,81.5,81.5,0,0,1-20.88-5.58,3.7,3.7,0,0,0-3.07,0,82.45,82.45,0,0,1-20.89,5.55,3,3,0,0,0-1.76,1A90.65,90.65,0,0,1,32.89,34.94a3,3,0,0,0-1,1.77A85,85,0,0,1,26.18,58,3,3,0,0,0,26,59.81C27.69,65.44,29.46,71.05,31.25,76.77Zm-7.39,66.74q49.05,19,97.78,0V109.69H23.86Zm97.82,11.72q-49,17.49-97.73,0v19.53h97.73Zm0-67.32H24V98.59h97.73Z"/></g></g></svg>