<svg width="24" height="24" viewBox="0 0 24 24" fill="none" xmlns="http://www.w3.org/2000/svg">
<path fill-rule="evenodd" clip-rule="evenodd" d="M2.5403 21.4597V18.2776L14.8692 5.94865L18.053 9.1308L5.72414 21.4597H2.5403ZM19.8482 7.33396L21.2115 5.97067C21.2903 5.89201 21.3529 5.79857 21.3956 5.6957C21.4383 5.59282 21.4602 5.48254 21.4602 5.37116C21.4602 5.25978 21.4383 5.14949 21.3956 5.04662C21.3529 4.94375 21.2903 4.8503 21.2115 4.77165L19.2284 2.78852C19.1497 2.70967 19.0563 2.6471 18.9534 2.60441C18.8505 2.56173 18.7402 2.53975 18.6288 2.53975C18.5175 2.53975 18.4072 2.56173 18.3043 2.60441C18.2014 2.6471 18.108 2.70967 18.0293 2.78852L16.666 4.15182L19.8482 7.33396ZM0 21.4597V17.2259L16.2342 0.991686C16.8694 0.35671 17.7307 0 18.6288 0C19.527 0 20.3883 0.35671 21.0235 0.991686L23.0083 2.9765C23.6433 3.61167 24 4.47303 24 5.37116C24 6.26929 23.6433 7.13064 23.0083 7.76581L6.77412 24H0V21.4597Z" fill="#505050"/>
</svg>
