<svg xmlns="http://www.w3.org/2000/svg" viewBox="0 0 177.82 177.98"><defs><style>.cls-1{fill:#fff;}</style></defs><g id="Livello_2" data-name="Livello 2"><g id="Livello_1-2" data-name="Livello 1"><path class="cls-1" d="M113.75,56.67l9.61-9.31c-.57-.59-1.08-1.15-1.61-1.68Q109.82,33.75,97.92,21.82a14.17,14.17,0,0,1-2.09-2.61,3.82,3.82,0,0,1,.61-5,12.15,12.15,0,0,1,2.46-1.88,80.05,80.05,0,0,1,27.39-9.78c5.11-.88,10.31-1.25,15.45-2,5.89-.84,11.81-.45,17.71-.35a110,110,0,0,1,12.86,1.43c2.42.33,3.6,1.6,4,4.12a134.14,134.14,0,0,1,1.48,23.78,123.87,123.87,0,0,1-4.36,30.77,79.31,79.31,0,0,1-8,19A10.37,10.37,0,0,1,164,81.26a4.21,4.21,0,0,1-5.36.83,10,10,0,0,1-2.16-1.68q-12-12-23.9-24a23.31,23.31,0,0,1-1.72-2.2l-9.69,10.07a3.45,3.45,0,0,1,1,.56q12.48,12.41,24.9,24.83a12.82,12.82,0,0,1,1.56,1.82,4.48,4.48,0,0,1-.64,5.8,4.61,4.61,0,0,1-5.93.59,10.81,10.81,0,0,1-1.54-1.33q-12-12-23.92-23.94c-.68-.67-1.25-1.44-1.9-2.2l-9.57,9.9a3.58,3.58,0,0,1,.91.56q8.43,8.36,16.84,16.76c1.38,1.37,2.44,2.86,2.12,5a4.66,4.66,0,0,1-7.17,3.21,19.38,19.38,0,0,1-2.58-2.31q-8-8-16-16c-.31-.31-.63-.6-.87-.82L89,96.22c.83.77,1.81,1.64,2.74,2.55,2.54,2.5,5.08,5,7.57,7.54a4.57,4.57,0,0,1,1.15,5.28A4.32,4.32,0,0,1,96,114.46a6.15,6.15,0,0,1-3.22-1.34c-3.55-3.28-7-6.72-10.31-10l-9.37,9.55c.53.76,1.38,1.86,2.12,3,5,8,8.15,16.63,8.31,26.17.14,8.64-2.32,16.61-6.38,24.18a47.66,47.66,0,0,1-7.24,9.81c-3.13,3.38-7,2.65-8.55-1.71-2.55-7.35-5-14.74-7.45-22.12-2.09-6.25-4.18-12.49-6.2-18.76a4.35,4.35,0,0,0-3-3.07c-13.36-4.39-26.7-8.85-40-13.29-.45-.15-.91-.31-1.35-.5-3.68-1.59-4.41-5.29-1.55-8.11A45.92,45.92,0,0,1,25.24,95.59c14.32-2.9,27.38,0,39.12,8.67.81.6,1.33.72,2.1-.1,2.76-2.94,5.6-5.81,8.47-8.78l-2.32-2.32c-2.58-2.57-5.2-5.1-7.72-7.73A4.74,4.74,0,0,1,67,77.25a4.51,4.51,0,0,1,4.66,1.47q4.57,4.59,9.13,9.2A5.66,5.66,0,0,1,81.47,89l9.76-9.78c-6.12-5.48-11.75-11.58-17.68-17.38a10.16,10.16,0,0,1-1.44-1.76A4.63,4.63,0,0,1,78.94,54a16,16,0,0,1,3.43,4.4c2.68,5.34,6.88,9,12,11.79a35.87,35.87,0,0,1,3.45,2.39l9.4-9.49c-4.13-3.45-7.86-7.65-11.87-11.57s-8-8-12-12a42,42,0,0,1-3.08-3.18,4.67,4.67,0,0,1,3-7.8,5.35,5.35,0,0,1,2.63.52,5.4,5.4,0,0,1,1.7,1.29Q100,42.69,112.36,55.07C112.89,55.6,113.35,56.2,113.75,56.67Zm46.19,12.87s.06-.06.11-.17a96.92,96.92,0,0,0,7.61-30.55,158.56,158.56,0,0,0,0-26.24c-.12-1.7-.56-2.2-2.25-2.31-2.68-.16-5.35-.24-8-.4a108.24,108.24,0,0,0-41,5.07c-2.8.94-5.58,1.9-8.21,2.79ZM14.85,110.13c1,.38,1.82.75,2.69,1,10.9,3.63,21.8,7.28,32.73,10.85a8.09,8.09,0,0,1,5.58,5.56C59.4,138.43,63,149.26,66.64,160.1c.31.93.71,1.82,1.1,2.81,7.92-10.75,9.84-32.17-4.68-47.19C49,101.17,27.61,101.31,14.85,110.13Z"/><path class="cls-1" d="M144.91,24.23a4.85,4.85,0,0,1-4.74,4.87,4.71,4.71,0,0,1-4.67-4.65,4.62,4.62,0,0,1,4.58-4.82A4.7,4.7,0,0,1,144.91,24.23Z"/></g></g></svg>