<svg xmlns="http://www.w3.org/2000/svg" viewBox="0 0 165.09 187.86"><defs><style>.cls-1{fill:#fff;}</style></defs><g id="Livello_2" data-name="Livello 2"><g id="Livello_1-2" data-name="Livello 1"><path class="cls-1" d="M56.6,65.24c-8-3.78-13.38-9.07-11.57-18.66s8.83-12.45,17.65-13c-1-1.59-1.92-3.07-2.88-4.52-4.44-6.75-8.9-13.48-13.32-20.23a13.56,13.56,0,0,1-1.59-3.07A4.44,4.44,0,0,1,49.06.07c4.6,0,9.21-.11,13.8,0a21.75,21.75,0,0,1,4.73,1.15,12.38,12.38,0,0,1,2.16.7,6.29,6.29,0,0,0,6.47-.32C78.9,0,81.88-.16,84.89.1a9.15,9.15,0,0,1,2.68,1c4.61,2,4.63,2.08,9.37.4A23.28,23.28,0,0,1,105.73,0c3.47.14,7,0,10.44,0a4.43,4.43,0,0,1,4.1,5.78,19,19,0,0,1-2,3.56q-7.41,11.36-14.86,22.66c-.31.46-.58,1-1,1.67H104c9.46,0,16.24,6.31,16.66,15.72.21,4.7-1.93,8.53-5.48,11.49-1.89,1.58-4,2.87-6.14,4.35.21.19.5.49.82.75A127.53,127.53,0,0,1,134,92.26a119.14,119.14,0,0,1,18.16,43c.75,3.51,1.28,7.07,1.81,10.63.91,6.16,3.79,11.37,7.5,16.24,3.59,4.72,4.68,9.94,2.6,15.58a15.56,15.56,0,0,1-14.73,10.16H16.36c-8.85,0-15.44-5.93-16.29-14.7a13.19,13.19,0,0,1,3-10c5.7-6.81,8.3-14.79,9.66-23.38A115.85,115.85,0,0,1,30.55,94.29,121.55,121.55,0,0,1,54.71,67C55.32,66.5,55.87,65.92,56.6,65.24Zm20-1.15c-1.87.72-3.61,1-5,2A128.25,128.25,0,0,0,52.27,81.9,112.49,112.49,0,0,0,21.16,145,43.87,43.87,0,0,1,12,166.54,19.66,19.66,0,0,0,10.26,169,6.28,6.28,0,0,0,14,178.29a13.67,13.67,0,0,0,3.67.44q65.32,0,130.65,0c.36,0,.72,0,1.08,0a6.55,6.55,0,0,0,5.29-10.27c-.43-.67-.92-1.31-1.4-1.95a42.07,42.07,0,0,1-7.95-16.61c-.82-4-1.25-8.14-2.11-12.16C137,108.73,122,85.48,97.45,68.54a55,55,0,0,0-5.91-3.33,1.67,1.67,0,0,0-1.43,0c-.7.44-.76,1.12-.47,2q4.1,12.09,8.09,24.21a9.79,9.79,0,0,1,.5,2.33,4.26,4.26,0,0,1-2.77,4.45,4,4,0,0,1-5-1.14,8.38,8.38,0,0,1-1.42-2.59c-1.18-3.35-2.25-6.74-3.38-10.1-1-2.84-2-5.66-2.93-8.49a61.66,61.66,0,0,0-2.55,6.54c-1.45,4.27-2.84,8.56-4.32,12.81a4.49,4.49,0,0,1-5.65,3.15,4.44,4.44,0,0,1-3-5.87c1.76-5.52,3.61-11,5.43-16.5C73.89,72.14,75.18,68.28,76.58,64.09ZM57.7,9c.2.33.37.63.57.93,4.74,7.16,9.51,14.3,14.19,21.5a4.68,4.68,0,0,0,4.37,2.34c4,0,8.07,0,12.11,0a3.94,3.94,0,0,0,3.59-2q7-10.74,14-21.45c.23-.35.45-.71.74-1.17-.46,0-.73-.08-1-.08A19.8,19.8,0,0,0,94.43,12.6C92,14.29,90.08,14.05,88,12a4.44,4.44,0,0,0-.85-.83,16.05,16.05,0,0,0-3.81-1.83c-2.47-.52-4.35.84-6,2.53-2,2.07-3.88,2.41-6.35.9A24,24,0,0,0,57.7,9ZM82.58,42.9H62c-.56,0-1.12,0-1.68.05-2.63.29-4.76,1.37-5.86,3.91a6.11,6.11,0,0,0,.77,6.55c1.58,2,3.8,2.65,6.26,2.65h42.33a12.2,12.2,0,0,0,2.26-.23A6.53,6.53,0,0,0,111.37,50a6.25,6.25,0,0,0-4.73-6.64,13.21,13.21,0,0,0-3.43-.42C96.33,42.88,89.46,42.9,82.58,42.9Z"/></g></g></svg>