<svg xmlns="http://www.w3.org/2000/svg" viewBox="0 0 132.96 188.74"><defs><style>.cls-1{fill:#fff;}</style></defs><g id="Livello_2" data-name="Livello 2"><g id="Livello_1-2" data-name="Livello 1"><path class="cls-1" d="M107.52,188.74H25.44a5.43,5.43,0,0,0-.88-.23,26.78,26.78,0,0,1-10-2.95C7.11,181.64,2.7,175.42.69,167.37A13.36,13.36,0,0,0,0,165.7V60.58c.24-.91.57-1.81.72-2.73A52.32,52.32,0,0,1,15.21,29.49a4.22,4.22,0,0,0,1-2.66c.12-4.24.08-8.48.09-12.71A13.79,13.79,0,0,1,30.35.06C54.3.06,78.26.16,102.21,0a14.17,14.17,0,0,1,14.44,14.45c-.07,4.16,0,8.32,0,12.48a3.59,3.59,0,0,0,1.1,2.67,51.41,51.41,0,0,1,13.87,25.29c.43,2,.88,4,1.33,5.93V165.46c-.24.66-.54,1.31-.72,2-2.83,10.67-9.36,17.69-20.18,20.45C110.57,188.27,109,188.46,107.52,188.74ZM8.76,70.85v76.32H124.09V70.85Zm-.09,85.27c0,2.3-.11,4.46,0,6.61a18.14,18.14,0,0,0,2.46,8.06c3.82,6.46,9.68,9.32,17,9.33q38.33.06,76.65,0c12.76,0,21.17-9.65,19.39-24ZM9,62.2H123.86c0-.2,0-.35,0-.5,0-.52,0-1.05-.11-1.56A42.08,42.08,0,0,0,112,36.27a4.66,4.66,0,0,0-3.61-1.51c-7.59,0-15.19,0-22.79,0q-30.54,0-61.07,0A4.61,4.61,0,0,0,21,36.2a40.34,40.34,0,0,0-8.93,13.37A37.68,37.68,0,0,0,9,62.2ZM108,26c0-4.17.09-8.21,0-12.24a5.12,5.12,0,0,0-4.62-5,16.11,16.11,0,0,0-2.5-.2q-34.3,0-68.6,0h-.84C27.06,8.66,25,10.75,25,15c0,1.72,0,3.44,0,5.15,0,1.95,0,3.89,0,5.83Z"/><path class="cls-1" d="M57.65,87.18a20,20,0,0,0,1.74,9.42A23.79,23.79,0,0,0,69,107.8a4.26,4.26,0,0,0,1.54.56A15.73,15.73,0,0,1,83.88,124.8a15.89,15.89,0,0,1-31.74-1.47c.16-4.56,2.33-8.23,5.57-11.31,1.15-1.09,1.18-1.06.13-2.23-5.13-5.76-7.52-11.11-8.76-19.68a5.09,5.09,0,0,0-.7.37,29.64,29.64,0,0,0-11,16.81,1.38,1.38,0,0,0,.65,1.77,49.85,49.85,0,0,1,4.3,3,15.45,15.45,0,0,1,1.24,22.76,15.29,15.29,0,0,1-16.28,4.18c-6.09-1.83-9.65-6.18-10.84-12.39a15.4,15.4,0,0,1,9.91-17.42,3.49,3.49,0,0,0,2.51-2.82C30.48,99,33.54,92.35,39,86.93A37.37,37.37,0,0,1,51.66,79.1c1.69-.68,3.77-.44,5.68-.5s3.92,0,5.88,0a4,4,0,0,1,4.26,3.83c.13,2.63-1.19,4.31-3.8,4.6-1.55.17-3.12.09-4.68.12ZM32.22,131a7.19,7.19,0,0,0-.07-14.37A7.19,7.19,0,1,0,32.22,131ZM68,116.74a7,7,0,0,0-7,7.15,7.28,7.28,0,0,0,7,7,7.08,7.08,0,1,0,0-14.16Z"/><path class="cls-1" d="M81.3,42.58c3.55,0,7.11,0,10.66,0a8.87,8.87,0,0,1,2.13.26A3.9,3.9,0,0,1,97,47.14,3.92,3.92,0,0,1,93.76,51a6.93,6.93,0,0,1-1.43.14c-7.39,0-14.78,0-22.18,0-3.42,0-5.34-2.55-4.39-5.64.55-1.78,2.12-2.83,4.39-2.85C73.87,42.56,77.58,42.58,81.3,42.58Z"/><path class="cls-1" d="M105.89,51.1a4.26,4.26,0,1,1-.07-8.52,4.26,4.26,0,1,1,.07,8.52Z"/></g></g></svg>