<svg xmlns="http://www.w3.org/2000/svg" viewBox="0 0 156.12 190.17"><defs><style>.cls-1{fill:#fff;}</style></defs><g id="Livello_2" data-name="Livello 2"><g id="Livello_1-2" data-name="Livello 1"><path class="cls-1" d="M2.23,190.17c-2-1.74-2.23-4-2.23-6.49Q.06,114,0,44.25c0-.68,0-1.36,0-2a3.93,3.93,0,0,1,3.75-4,3.92,3.92,0,0,1,3.79,3.63,15.43,15.43,0,0,1,.09,1.92q0,68.34,0,136.67c0,2.35-.44,2.21,2.27,2.21q26.58,0,53.15-.08c13.76,0,27.52,0,41.28.08,1.7,0,1.7,0,1.7-1.73V122.4a19.25,19.25,0,0,1,0-2.15,3.6,3.6,0,0,1,3.85-3.32,3.5,3.5,0,0,1,3.59,3.44c0,.56,0,1.12,0,1.68V178c.71-.6,1.22-1,1.71-1.46,3.47-3,6.92-6.07,10.41-9.05a4.1,4.1,0,0,0,1.57-3.33q0-15.84,0-31.67V13.83c-.74.65-1.31,1.15-1.87,1.66s-1.36,1.36-2.08,2c-2.08,1.81-3.93,1.74-5.93-.18-1.2-1.16-2.43-2.3-3.76-3.56v92.52c0,.56,0,1.12,0,1.68a3.47,3.47,0,0,1-3.71,3.55,3.53,3.53,0,0,1-3.76-3.51c-.06-.72,0-1.44,0-2.15V13.51c-1.24,1.22-2.31,2.26-3.36,3.32-2.62,2.63-4.45,2.62-7,0-2.34-2.46-4.69-4.9-7.1-7.4l-6.63,7c-.08.08-.15.18-.24.27-2.7,2.89-4.58,2.93-7.35.09-2.06-2.12-4.08-4.28-6.1-6.44a11.29,11.29,0,0,1-.76-1l-6,6.23c-.52.55-1,1.1-1.59,1.63-2.28,2.27-4.25,2.25-6.48-.09L46.6,9.73c-.08-.09-.17-.16-.34-.32l-6.1,6.38c-.53.55-1,1.1-1.6,1.62-2,1.87-3.84,1.89-5.79,0-2.21-2.2-4.33-4.49-6.49-6.74-.38-.39-.75-.8-1.18-1.25l-5.75,6c-.66.69-1.33,1.39-2,2-1.8,1.71-3.67,1.77-5.55.12-.89-.79-1.68-1.71-2.52-2.56-.44-.44-.9-.87-1.55-1.51V15c0,4.48,0,9,0,13.44,0,1.82-.49,3.38-2.4,4.15a3.72,3.72,0,0,1-5.21-3.2C0,28.06,0,26.7,0,25.34V4.58C0,2.72.56,1.18,2.41.4A3.86,3.86,0,0,1,7,1.58c2.49,2.6,5,5.21,7.52,7.91l4-4.24C19.72,4,20.9,2.67,22.18,1.46,24.25-.5,26-.49,28,1.53c2.34,2.35,4.59,4.78,6.88,7.19.24.25.46.53.71.83l6.54-6.87c.42-.44.84-.87,1.28-1.28,2-1.83,3.76-1.87,5.67,0,2.32,2.31,4.55,4.72,6.81,7.09.29.32.53.68.82,1.05,2.59-2.7,5-5.25,7.47-7.76s4.26-2.39,6.64.08,4.74,5,7.21,7.57l4.85-5.09c.89-.93,1.76-1.87,2.67-2.77,2.14-2.11,4-2.14,6.13,0C94,3.93,96.24,6.33,98.5,8.71a9.77,9.77,0,0,1,.64.87c2.63-2.73,5.08-5.31,7.57-7.84,2.24-2.29,4-2.32,6.27-.05,2.5,2.53,4.93,5.12,7.48,7.79l4.41-4.64c1-1.07,2-2.14,3.09-3.19,2.21-2.2,4-2.21,6.19,0s4.32,4.5,6.46,6.77a12.28,12.28,0,0,1,.89,1.19l5.88-6.21c.66-.7,1.31-1.41,2-2.07a3.84,3.84,0,0,1,6.68,2.82q0,12.36,0,24.72a3.9,3.9,0,0,1-3.83,4.1,3.84,3.84,0,0,1-3.86-4c-.05-5,0-9.91,0-15.19-1,1-1.92,1.82-2.78,2.66-3.23,3.18-4.71,3.17-7.88,0-.86-.87-1.76-1.7-2.78-2.68v1.49q0,33.12,0,66.24,0,36.71-.07,73.43c0,2.91,0,5.83.1,8.74a6.62,6.62,0,0,0,2.53,4.86l10.13,8.64c.17.14.37.27.76.55V43.53a13.25,13.25,0,0,1,.05-1.67,3.84,3.84,0,0,1,3.8-3.61,3.94,3.94,0,0,1,3.86,3.84c0,.39,0,.79,0,1.19q0,54.84,0,109.68,0,16,.05,31.92a5.87,5.87,0,0,1-2.45,5.29Zm118-7.77h21.69l-10.83-9.5Z"/></g></g></svg>