<svg width="24" height="24" viewBox="0 0 24 24" fill="none" xmlns="http://www.w3.org/2000/svg">
<path d="M10.8 2.8V1.2C10.8 0.88174 10.9264 0.576516 11.1515 0.351472C11.3765 0.126428 11.6817 0 12 0C12.3183 0 12.6235 0.126428 12.8485 0.351472C13.0736 0.576516 13.2 0.88174 13.2 1.2V2.8C13.2 3.11826 13.0736 3.42348 12.8485 3.64853C12.6235 3.87357 12.3183 4 12 4C11.6817 4 11.3765 3.87357 11.1515 3.64853C10.9264 3.42348 10.8 3.11826 10.8 2.8ZM18.8 12C18.8 13.3449 18.4012 14.6596 17.654 15.7779C16.9068 16.8961 15.8448 17.7677 14.6022 18.2824C13.3597 18.7971 11.9925 18.9317 10.6734 18.6693C9.35431 18.407 8.14267 17.7593 7.19167 16.8083C6.24068 15.8573 5.59304 14.6457 5.33066 13.3266C5.06828 12.0075 5.20294 10.6403 5.71762 9.39775C6.2323 8.15521 7.10387 7.0932 8.22212 6.34601C9.34038 5.59881 10.6551 5.2 12 5.2C13.8029 5.20185 15.5314 5.91887 16.8063 7.19372C18.0811 8.46857 18.7981 10.1971 18.8 12ZM16.4 12C16.4 11.1298 16.1419 10.2791 15.6585 9.55549C15.175 8.83191 14.4878 8.26796 13.6838 7.93493C12.8798 7.6019 11.9951 7.51477 11.1416 7.68455C10.2881 7.85432 9.50408 8.27338 8.88873 8.88873C8.27338 9.50408 7.85432 10.2881 7.68455 11.1416C7.51477 11.9951 7.6019 12.8798 7.93493 13.6838C8.26796 14.4878 8.83191 15.175 9.55549 15.6585C10.2791 16.1419 11.1298 16.4 12 16.4C13.1665 16.3987 14.2849 15.9347 15.1098 15.1098C15.9347 14.2849 16.3987 13.1665 16.4 12ZM4.351 6.049C4.46262 6.16062 4.59514 6.24917 4.74098 6.30958C4.88683 6.36999 5.04314 6.40108 5.201 6.40108C5.35886 6.40108 5.51517 6.36999 5.66102 6.30958C5.80686 6.24917 5.93938 6.16062 6.051 6.049C6.16262 5.93738 6.25117 5.80486 6.31158 5.65902C6.37199 5.51317 6.40308 5.35686 6.40308 5.199C6.40308 5.04114 6.37199 4.88483 6.31158 4.73898C6.25117 4.59314 6.16262 4.46062 6.051 4.349L4.851 3.149C4.62557 2.92357 4.31981 2.79692 4.001 2.79692C3.68219 2.79692 3.37643 2.92357 3.151 3.149C2.92557 3.37443 2.79892 3.68019 2.79892 3.999C2.79892 4.31781 2.92557 4.62357 3.151 4.849L4.351 6.049ZM4.351 17.949L3.151 19.149C3.03938 19.2606 2.95083 19.3931 2.89042 19.539C2.83001 19.6848 2.79892 19.8411 2.79892 19.999C2.79892 20.1569 2.83001 20.3132 2.89042 20.459C2.95083 20.6049 3.03938 20.7374 3.151 20.849C3.37643 21.0744 3.68219 21.2011 4.001 21.2011C4.15886 21.2011 4.31517 21.17 4.46102 21.1096C4.60686 21.0492 4.73938 20.9606 4.851 20.849L6.051 19.649C6.27643 19.4236 6.40308 19.1178 6.40308 18.799C6.40308 18.4802 6.27643 18.1744 6.051 17.949C5.82557 17.7236 5.51981 17.5969 5.201 17.5969C4.88219 17.5969 4.57643 17.7236 4.351 17.949ZM18.8 6.4C18.9576 6.40012 19.1137 6.36919 19.2594 6.30896C19.4051 6.24874 19.5375 6.1604 19.649 6.049L20.849 4.849C20.9606 4.73738 21.0492 4.60486 21.1096 4.45902C21.17 4.31317 21.2011 4.15686 21.2011 3.999C21.2011 3.84114 21.17 3.68483 21.1096 3.53898C21.0492 3.39314 20.9606 3.26062 20.849 3.149C20.7374 3.03738 20.6049 2.94883 20.459 2.88842C20.3132 2.82801 20.1569 2.79692 19.999 2.79692C19.8411 2.79692 19.6848 2.82801 19.539 2.88842C19.3931 2.94883 19.2606 3.03738 19.149 3.149L17.949 4.349C17.7802 4.51684 17.6651 4.7311 17.6184 4.96453C17.5717 5.19796 17.5954 5.44002 17.6867 5.6599C17.7779 5.87978 17.9325 6.06756 18.1307 6.19935C18.329 6.33114 18.5619 6.40098 18.8 6.4ZM19.649 17.951C19.4236 17.7256 19.1178 17.5989 18.799 17.5989C18.4802 17.5989 18.1744 17.7256 17.949 17.951C17.7236 18.1764 17.5969 18.4822 17.5969 18.801C17.5969 19.1198 17.7236 19.4256 17.949 19.651L19.149 20.851C19.3744 21.0764 19.6802 21.2031 19.999 21.2031C20.3178 21.2031 20.6236 21.0764 20.849 20.851C21.0744 20.6256 21.2011 20.3198 21.2011 20.001C21.2011 19.6822 21.0744 19.3764 20.849 19.151L19.649 17.951ZM4 12C4 11.6817 3.87357 11.3765 3.64853 11.1515C3.42348 10.9264 3.11826 10.8 2.8 10.8H1.2C0.88174 10.8 0.576516 10.9264 0.351472 11.1515C0.126428 11.3765 0 11.6817 0 12C0 12.3183 0.126428 12.6235 0.351472 12.8485C0.576516 13.0736 0.88174 13.2 1.2 13.2H2.8C3.11826 13.2 3.42348 13.0736 3.64853 12.8485C3.87357 12.6235 4 12.3183 4 12ZM12 20C11.6817 20 11.3765 20.1264 11.1515 20.3515C10.9264 20.5765 10.8 20.8817 10.8 21.2V22.8C10.8 23.1183 10.9264 23.4235 11.1515 23.6485C11.3765 23.8736 11.6817 24 12 24C12.3183 24 12.6235 23.8736 12.8485 23.6485C13.0736 23.4235 13.2 23.1183 13.2 22.8V21.2C13.2 20.8817 13.0736 20.5765 12.8485 20.3515C12.6235 20.1264 12.3183 20 12 20ZM22.8 10.8H21.2C20.8817 10.8 20.5765 10.9264 20.3515 11.1515C20.1264 11.3765 20 11.6817 20 12C20 12.3183 20.1264 12.6235 20.3515 12.8485C20.5765 13.0736 20.8817 13.2 21.2 13.2H22.8C23.1183 13.2 23.4235 13.0736 23.6485 12.8485C23.8736 12.6235 24 12.3183 24 12C24 11.6817 23.8736 11.3765 23.6485 11.1515C23.4235 10.9264 23.1183 10.8 22.8 10.8Z" fill="#505050"/>
</svg>
